<svg width="981" height="1009"
    xmlns="http://www.w3.org/2000/svg"
    xmlns:xlink="http://www.w3.org/1999/xlink" xml:space="preserve" overflow="hidden">
    <defs>
        <clipPath id="clip0">
            <rect x="1651" y="915" width="981" height="1009"/>
        </clipPath>
    </defs>
    <g clip-path="url(#clip0)" transform="translate(-1651 -915)">
        <path d="M1687.5 1534C1687.5 1319.99 1898.37 1146.5 2158.5 1146.5 2418.63 1146.5 2629.5 1319.99 2629.5 1534 2629.5 1748.01 2418.63 1921.5 2158.5 1921.5 1898.37 1921.5 1687.5 1748.01 1687.5 1534Z" stroke="#843C0C" stroke-width="4.58333" stroke-miterlimit="8" fill="#F4B183" fill-rule="evenodd"/>
        <path d="M2229.5 1542.5C2229.5 1508.81 2253.68 1481.5 2283.5 1481.5 2313.32 1481.5 2337.5 1508.81 2337.5 1542.5 2337.5 1576.19 2313.32 1603.5 2283.5 1603.5 2253.68 1603.5 2229.5 1576.19 2229.5 1542.5Z" stroke="#843C0C" stroke-width="4.58333" stroke-miterlimit="8" fill="#F4B183" fill-rule="evenodd"/>
        <path d="M2444.54 1581.75C2475.74 1669.85 2432.71 1765.48 2348.42 1795.33 2264.14 1825.18 2170.51 1777.96 2139.31 1689.86 2233.73 1755.57 2359.63 1731.08 2420.51 1635.15 2430.96 1618.69 2439.05 1600.71 2444.54 1581.75Z" stroke="#181717" stroke-width="4.58333" stroke-miterlimit="8" fill="#FFFFFF" fill-rule="evenodd"/>
        <path d="M1793.4 1318.96C1778.33 1270.29 1922.35 1182.43 2115.1 1122.72 2307.84 1063.01 2476.32 1054.06 2491.39 1102.73 2506.47 1151.4 2362.44 1239.26 2169.7 1298.97 1976.95 1358.68 1808.48 1367.63 1793.4 1318.96Z" stroke="#181717" stroke-width="4.58333" stroke-miterlimit="8" fill="#3D1C05" fill-rule="evenodd"/>
        <path d="M1689.54 1676.76C1647.25 1661.29 1646.27 1557.73 1687.36 1445.45 1728.44 1333.17 1796.03 1254.69 1838.32 1270.17 1880.61 1285.64 1881.58 1389.21 1840.5 1501.48 1799.41 1613.76 1731.82 1692.24 1689.54 1676.76Z" stroke="#181717" stroke-width="4.58333" stroke-miterlimit="8" fill="#3D1C05" fill-rule="evenodd"/>
        <path d="M1699.63 1438.41C1609.04 1291.62 1659.04 1096.36 1811.32 1002.28 1962.91 908.614 2158.88 950.483 2250.03 1096.01L1975.36 1268.05Z" stroke="#203864" stroke-width="6.875" stroke-miterlimit="8" fill="#2E75B6" fill-rule="evenodd"/>
        <path d="M1964.08 1192.45C1937.95 1143.48 2019.36 1049.06 2145.89 981.554 2272.43 914.045 2396.19 899.012 2422.31 947.977 2448.44 996.943 2367.03 1091.36 2240.49 1158.87 2113.96 1226.38 1990.2 1241.41 1964.08 1192.45Z" stroke="#2F528F" stroke-width="6.875" stroke-miterlimit="8" fill="#2E75B6" fill-rule="evenodd"/>
        <path d="M1771.5 1002C1771.5 988.469 1785.16 977.5 1802 977.5 1818.84 977.5 1832.5 988.469 1832.5 1002 1832.5 1015.53 1818.84 1026.5 1802 1026.5 1785.16 1026.5 1771.5 1015.53 1771.5 1002Z" stroke="#2F528F" stroke-width="4.58333" stroke-miterlimit="8" fill="#4472C4" fill-rule="evenodd"/>
        <path d="M2286.2 1452.65C2255.47 1374.08 2256.85 1300.38 2289.27 1288.05 2321.59 1275.76 2372.58 1329.08 2403.35 1407.34L2344.91 1430.32Z" stroke="#181717" stroke-width="4.58333" stroke-miterlimit="8" fill="#FFFFFF" fill-rule="evenodd"/>
        <path d="M2030.46 1551.71C2007.6 1497.63 2022.14 1439.81 2062.95 1422.55 2103.76 1405.3 2155.38 1435.15 2178.25 1489.22 2148.83 1437.92 2094.88 1417.35 2057.74 1443.28 2028.71 1463.56 2017.71 1507.28 2030.46 1551.71Z" stroke="#2F528F" stroke-width="4.58333" stroke-miterlimit="8" fill="#3D1C05" fill-rule="evenodd"/>
        <path d="M2386 1469C2386 1463.48 2390.7 1459 2396.5 1459 2402.3 1459 2407 1463.48 2407 1469 2407 1474.52 2402.3 1479 2396.5 1479 2390.7 1479 2386 1474.52 2386 1469Z" fill="#843C0C" fill-rule="evenodd"/>
        <path d="M2376 1515C2376 1509.48 2380.48 1505 2386 1505 2391.52 1505 2396 1509.48 2396 1515 2396 1520.52 2391.52 1525 2386 1525 2380.48 1525 2376 1520.52 2376 1515Z" fill="#843C0C" fill-rule="evenodd"/>
        <path d="M2424 1494.5C2424 1488.7 2428.48 1484 2434 1484 2439.52 1484 2444 1488.7 2444 1494.5 2444 1500.3 2439.52 1505 2434 1505 2428.48 1505 2424 1500.3 2424 1494.5Z" fill="#843C0C" fill-rule="evenodd"/>
        <path d="M2140 1552.5C2140 1546.7 2144.7 1542 2150.5 1542 2156.3 1542 2161 1546.7 2161 1552.5 2161 1558.3 2156.3 1563 2150.5 1563 2144.7 1563 2140 1558.3 2140 1552.5Z" fill="#843C0C" fill-rule="evenodd"/>
        <path d="M2120 1622.5C2120 1616.7 2124.48 1612 2130 1612 2135.52 1612 2140 1616.7 2140 1622.5 2140 1628.3 2135.52 1633 2130 1633 2124.48 1633 2120 1628.3 2120 1622.5Z" fill="#843C0C" fill-rule="evenodd"/>
        <path d="M2185 1603C2185 1597.48 2189.48 1593 2195 1593 2200.52 1593 2205 1597.48 2205 1603 2205 1608.52 2200.52 1613 2195 1613 2189.48 1613 2185 1608.52 2185 1603Z" fill="#843C0C" fill-rule="evenodd"/>
        <path d="M2301.68 1446.18C2275.21 1378.69 2269.44 1318 2288.8 1310.64 2308.11 1303.29 2345.15 1351.81 2371.63 1419.13L2336.73 1432.85Z" stroke="#181717" stroke-width="4.58333" stroke-miterlimit="8" fill="#0D0D0D" fill-rule="evenodd"/>
    </g>
</svg>